<svg width="363" height="54" viewBox="0 0 363 54" fill="none" xmlns="http://www.w3.org/2000/svg">
<mask id="path-1-outside-1_67_2" maskUnits="userSpaceOnUse" x="-0.476685" y="0.567993" width="363" height="54" fill="black">
<rect fill="white" x="-0.476685" y="0.567993" width="363" height="54"/>
<path d="M3.52332 51L18.3553 17.4H27.7153L42.5953 51H32.7073L21.0913 22.056H24.8353L13.2193 51H3.52332ZM11.6353 44.472L14.0833 37.464H30.4993L32.9473 44.472H11.6353ZM45.2897 51V17.4H53.1137L71.6417 39.768H67.9457V17.4H77.2577V51H69.4337L50.9057 28.632H54.6017V51H45.2897ZM83.9616 51V17.4H93.4656V51H83.9616ZM110.453 51L96.1014 17.4H106.373L118.469 46.488H112.421L124.805 17.4H134.213L119.813 51H110.453ZM144.916 30.408H160.516V37.512H144.916V30.408ZM145.588 43.656H163.156V51H136.18V17.4H162.532V24.744H145.588V43.656ZM168.43 51V17.4H183.79C186.862 17.4 189.502 17.896 191.71 18.888C193.95 19.88 195.678 21.32 196.894 23.208C198.11 25.064 198.718 27.272 198.718 29.832C198.718 32.36 198.11 34.552 196.894 36.408C195.678 38.232 193.95 39.64 191.71 40.632C189.502 41.592 186.862 42.072 183.79 42.072H173.71L177.934 38.088V51H168.43ZM189.214 51L180.862 38.76H190.99L199.39 51H189.214ZM177.934 39.096L173.71 34.728H183.214C185.198 34.728 186.67 34.296 187.63 33.432C188.622 32.568 189.118 31.368 189.118 29.832C189.118 28.264 188.622 27.048 187.63 26.184C186.67 25.32 185.198 24.888 183.214 24.888H173.71L177.934 20.52V39.096ZM215.77 51.672C213.018 51.672 210.362 51.336 207.802 50.664C205.274 49.96 203.21 49.064 201.61 47.976L204.73 40.968C206.234 41.928 207.962 42.728 209.914 43.368C211.898 43.976 213.866 44.28 215.818 44.28C217.13 44.28 218.186 44.168 218.986 43.944C219.786 43.688 220.362 43.368 220.714 42.984C221.098 42.568 221.29 42.088 221.29 41.544C221.29 40.776 220.938 40.168 220.234 39.72C219.53 39.272 218.618 38.904 217.498 38.616C216.378 38.328 215.13 38.04 213.754 37.752C212.41 37.464 211.05 37.096 209.674 36.648C208.33 36.2 207.098 35.624 205.978 34.92C204.858 34.184 203.946 33.24 203.242 32.088C202.538 30.904 202.186 29.416 202.186 27.624C202.186 25.608 202.73 23.784 203.818 22.152C204.938 20.52 206.602 19.208 208.81 18.216C211.018 17.224 213.77 16.728 217.066 16.728C219.274 16.728 221.434 16.984 223.546 17.496C225.69 17.976 227.594 18.696 229.258 19.656L226.33 26.712C224.73 25.848 223.146 25.208 221.578 24.792C220.01 24.344 218.49 24.12 217.018 24.12C215.706 24.12 214.65 24.264 213.85 24.552C213.05 24.808 212.474 25.16 212.122 25.608C211.77 26.056 211.594 26.568 211.594 27.144C211.594 27.88 211.93 28.472 212.602 28.92C213.306 29.336 214.218 29.688 215.338 29.976C216.49 30.232 217.738 30.504 219.082 30.792C220.458 31.08 221.818 31.448 223.162 31.896C224.538 32.312 225.786 32.888 226.906 33.624C228.026 34.328 228.922 35.272 229.594 36.456C230.298 37.608 230.65 39.064 230.65 40.824C230.65 42.776 230.09 44.584 228.97 46.248C227.882 47.88 226.234 49.192 224.026 50.184C221.85 51.176 219.098 51.672 215.77 51.672ZM231.008 51L245.84 17.4H255.2L270.08 51H260.192L248.576 22.056H252.32L240.704 51H231.008ZM239.12 44.472L241.568 37.464H257.984L260.432 44.472H239.12ZM272.774 51V17.4H288.134C291.206 17.4 293.846 17.896 296.054 18.888C298.294 19.88 300.022 21.32 301.238 23.208C302.454 25.064 303.062 27.272 303.062 29.832C303.062 32.36 302.454 34.552 301.238 36.408C300.022 38.232 298.294 39.64 296.054 40.632C293.846 41.592 291.206 42.072 288.134 42.072H278.054L282.278 38.088V51H272.774ZM293.558 51L285.206 38.76H295.334L303.734 51H293.558ZM282.278 39.096L278.054 34.728H287.558C289.542 34.728 291.014 34.296 291.974 33.432C292.966 32.568 293.462 31.368 293.462 29.832C293.462 28.264 292.966 27.048 291.974 26.184C291.014 25.32 289.542 24.888 287.558 24.888H278.054L282.278 20.52V39.096ZM308.305 51V17.4H317.809V51H308.305ZM341.515 51.672C338.827 51.672 336.347 51.24 334.075 50.376C331.803 49.512 329.819 48.296 328.123 46.728C326.459 45.128 325.163 43.272 324.235 41.16C323.307 39.048 322.843 36.728 322.843 34.2C322.843 31.672 323.307 29.352 324.235 27.24C325.163 25.128 326.459 23.288 328.123 21.72C329.819 20.12 331.803 18.888 334.075 18.024C336.347 17.16 338.827 16.728 341.515 16.728C344.235 16.728 346.715 17.16 348.955 18.024C351.227 18.888 353.195 20.12 354.859 21.72C356.523 23.288 357.819 25.128 358.747 27.24C359.707 29.352 360.187 31.672 360.187 34.2C360.187 36.728 359.707 39.064 358.747 41.208C357.819 43.32 356.523 45.16 354.859 46.728C353.195 48.296 351.227 49.512 348.955 50.376C346.715 51.24 344.235 51.672 341.515 51.672ZM341.515 43.8C342.795 43.8 343.979 43.576 345.067 43.128C346.187 42.68 347.147 42.04 347.947 41.208C348.779 40.344 349.419 39.32 349.867 38.136C350.347 36.952 350.587 35.64 350.587 34.2C350.587 32.728 350.347 31.416 349.867 30.264C349.419 29.08 348.779 28.072 347.947 27.24C347.147 26.376 346.187 25.72 345.067 25.272C343.979 24.824 342.795 24.6 341.515 24.6C340.235 24.6 339.035 24.824 337.915 25.272C336.827 25.72 335.867 26.376 335.035 27.24C334.235 28.072 333.595 29.08 333.115 30.264C332.667 31.416 332.443 32.728 332.443 34.2C332.443 35.64 332.667 36.952 333.115 38.136C333.595 39.32 334.235 40.344 335.035 41.208C335.867 42.04 336.827 42.68 337.915 43.128C339.035 43.576 340.235 43.8 341.515 43.8Z"/>
<path d="M248.805 9.86399L255.237 2.56799H264.357L255.333 9.86399H248.805Z"/>
</mask>
<path d="M3.52332 51L18.3553 17.4H27.7153L42.5953 51H32.7073L21.0913 22.056H24.8353L13.2193 51H3.52332ZM11.6353 44.472L14.0833 37.464H30.4993L32.9473 44.472H11.6353ZM45.2897 51V17.4H53.1137L71.6417 39.768H67.9457V17.4H77.2577V51H69.4337L50.9057 28.632H54.6017V51H45.2897ZM83.9616 51V17.4H93.4656V51H83.9616ZM110.453 51L96.1014 17.4H106.373L118.469 46.488H112.421L124.805 17.4H134.213L119.813 51H110.453ZM144.916 30.408H160.516V37.512H144.916V30.408ZM145.588 43.656H163.156V51H136.18V17.4H162.532V24.744H145.588V43.656ZM168.43 51V17.4H183.79C186.862 17.4 189.502 17.896 191.71 18.888C193.95 19.88 195.678 21.32 196.894 23.208C198.11 25.064 198.718 27.272 198.718 29.832C198.718 32.36 198.11 34.552 196.894 36.408C195.678 38.232 193.95 39.64 191.71 40.632C189.502 41.592 186.862 42.072 183.79 42.072H173.71L177.934 38.088V51H168.43ZM189.214 51L180.862 38.76H190.99L199.39 51H189.214ZM177.934 39.096L173.71 34.728H183.214C185.198 34.728 186.67 34.296 187.63 33.432C188.622 32.568 189.118 31.368 189.118 29.832C189.118 28.264 188.622 27.048 187.63 26.184C186.67 25.32 185.198 24.888 183.214 24.888H173.71L177.934 20.52V39.096ZM215.77 51.672C213.018 51.672 210.362 51.336 207.802 50.664C205.274 49.96 203.21 49.064 201.61 47.976L204.73 40.968C206.234 41.928 207.962 42.728 209.914 43.368C211.898 43.976 213.866 44.28 215.818 44.28C217.13 44.28 218.186 44.168 218.986 43.944C219.786 43.688 220.362 43.368 220.714 42.984C221.098 42.568 221.29 42.088 221.29 41.544C221.29 40.776 220.938 40.168 220.234 39.72C219.53 39.272 218.618 38.904 217.498 38.616C216.378 38.328 215.13 38.04 213.754 37.752C212.41 37.464 211.05 37.096 209.674 36.648C208.33 36.2 207.098 35.624 205.978 34.92C204.858 34.184 203.946 33.24 203.242 32.088C202.538 30.904 202.186 29.416 202.186 27.624C202.186 25.608 202.73 23.784 203.818 22.152C204.938 20.52 206.602 19.208 208.81 18.216C211.018 17.224 213.77 16.728 217.066 16.728C219.274 16.728 221.434 16.984 223.546 17.496C225.69 17.976 227.594 18.696 229.258 19.656L226.33 26.712C224.73 25.848 223.146 25.208 221.578 24.792C220.01 24.344 218.49 24.12 217.018 24.12C215.706 24.12 214.65 24.264 213.85 24.552C213.05 24.808 212.474 25.16 212.122 25.608C211.77 26.056 211.594 26.568 211.594 27.144C211.594 27.88 211.93 28.472 212.602 28.92C213.306 29.336 214.218 29.688 215.338 29.976C216.49 30.232 217.738 30.504 219.082 30.792C220.458 31.08 221.818 31.448 223.162 31.896C224.538 32.312 225.786 32.888 226.906 33.624C228.026 34.328 228.922 35.272 229.594 36.456C230.298 37.608 230.65 39.064 230.65 40.824C230.65 42.776 230.09 44.584 228.97 46.248C227.882 47.88 226.234 49.192 224.026 50.184C221.85 51.176 219.098 51.672 215.77 51.672ZM231.008 51L245.84 17.4H255.2L270.08 51H260.192L248.576 22.056H252.32L240.704 51H231.008ZM239.12 44.472L241.568 37.464H257.984L260.432 44.472H239.12ZM272.774 51V17.4H288.134C291.206 17.4 293.846 17.896 296.054 18.888C298.294 19.88 300.022 21.32 301.238 23.208C302.454 25.064 303.062 27.272 303.062 29.832C303.062 32.36 302.454 34.552 301.238 36.408C300.022 38.232 298.294 39.64 296.054 40.632C293.846 41.592 291.206 42.072 288.134 42.072H278.054L282.278 38.088V51H272.774ZM293.558 51L285.206 38.76H295.334L303.734 51H293.558ZM282.278 39.096L278.054 34.728H287.558C289.542 34.728 291.014 34.296 291.974 33.432C292.966 32.568 293.462 31.368 293.462 29.832C293.462 28.264 292.966 27.048 291.974 26.184C291.014 25.32 289.542 24.888 287.558 24.888H278.054L282.278 20.52V39.096ZM308.305 51V17.4H317.809V51H308.305ZM341.515 51.672C338.827 51.672 336.347 51.24 334.075 50.376C331.803 49.512 329.819 48.296 328.123 46.728C326.459 45.128 325.163 43.272 324.235 41.16C323.307 39.048 322.843 36.728 322.843 34.2C322.843 31.672 323.307 29.352 324.235 27.24C325.163 25.128 326.459 23.288 328.123 21.72C329.819 20.12 331.803 18.888 334.075 18.024C336.347 17.16 338.827 16.728 341.515 16.728C344.235 16.728 346.715 17.16 348.955 18.024C351.227 18.888 353.195 20.12 354.859 21.72C356.523 23.288 357.819 25.128 358.747 27.24C359.707 29.352 360.187 31.672 360.187 34.2C360.187 36.728 359.707 39.064 358.747 41.208C357.819 43.32 356.523 45.16 354.859 46.728C353.195 48.296 351.227 49.512 348.955 50.376C346.715 51.24 344.235 51.672 341.515 51.672ZM341.515 43.8C342.795 43.8 343.979 43.576 345.067 43.128C346.187 42.68 347.147 42.04 347.947 41.208C348.779 40.344 349.419 39.32 349.867 38.136C350.347 36.952 350.587 35.64 350.587 34.2C350.587 32.728 350.347 31.416 349.867 30.264C349.419 29.08 348.779 28.072 347.947 27.24C347.147 26.376 346.187 25.72 345.067 25.272C343.979 24.824 342.795 24.6 341.515 24.6C340.235 24.6 339.035 24.824 337.915 25.272C336.827 25.72 335.867 26.376 335.035 27.24C334.235 28.072 333.595 29.08 333.115 30.264C332.667 31.416 332.443 32.728 332.443 34.2C332.443 35.64 332.667 36.952 333.115 38.136C333.595 39.32 334.235 40.344 335.035 41.208C335.867 42.04 336.827 42.68 337.915 43.128C339.035 43.576 340.235 43.8 341.515 43.8Z" stroke="white" stroke-width="4" mask="url(#path-1-outside-1_67_2)"/>
<path d="M248.805 9.86399L255.237 2.56799H264.357L255.333 9.86399H248.805Z" stroke="white" stroke-width="4" mask="url(#path-1-outside-1_67_2)"/>
</svg>
